<svg xmlns="http://www.w3.org/2000/svg" xmlns:xlink="http://www.w3.org/1999/xlink" width="1920" height="1080" viewBox="0 0 1920 1080"><defs><clipPath id="b"><rect width="1920" height="1080"/></clipPath></defs><g id="a" clip-path="url(#b)"><rect width="1920" height="1080" fill="#ff2d55"/><g transform="translate(992 402)"><path d="M319.614,712.68A141.781,141.781,0,0,1,213.562,573.286c.122-7.912.954-15.99,4.28-23.17s9.5-13.39,17.232-15.091c8.434-1.857,17.333,1.939,23.619,7.861s10.406,13.736,14.2,21.495c22.838,46.734,40.189,96.88,46.686,148.488Z" transform="translate(-213.545 -184.28)" fill="#f2f2f2"/><path d="M231.247,536.583l16.006,36.368,16.006,36.367c5.069,11.518,10.129,23.04,15.368,34.482,5.194,11.341,10.565,22.6,16.3,33.684,5.722,11.065,11.8,21.949,18.405,32.515q1.233,1.974,2.49,3.932c.58.9,2.03.065,1.446-.845-6.728-10.488-12.927-21.305-18.742-32.324s-11.261-22.258-16.5-33.574c-5.267-11.377-10.332-22.847-15.383-34.321q-7.975-18.117-15.948-36.235l-16.006-36.367-1.992-4.526c-.433-.984-1.876-.133-1.446.845Z" transform="translate(-213.545 -184.28)" fill="#fff"/><path d="M312.937,712.932a82.967,82.967,0,0,1-92.692-43.741c-2.073-4.141-3.822-8.559-4.033-13.185s1.319-9.518,4.872-12.487c3.877-3.241,9.523-3.673,14.385-2.295s9.111,4.322,13.174,7.327c24.473,18.1,47.02,39.449,64.325,64.489Z" transform="translate(-213.545 -184.28)" fill="#f2f2f2"/><path d="M219.519,645.362l18.128,14.56,18.128,14.56c5.741,4.611,11.479,9.228,17.288,13.753,5.758,4.486,11.587,8.883,17.554,13.089s12.054,8.209,18.333,11.913q1.173.692,2.354,1.369c.545.313,1.072-.514.523-.829-6.324-3.629-12.463-7.572-18.457-11.722s-11.855-8.516-17.63-12.977c-5.806-4.485-11.532-9.072-17.252-13.666L240.425,660.9,222.3,646.345l-2.256-1.812c-.491-.394-1.01.438-.523.829Z" transform="translate(-213.545 -184.28)" fill="#fff"/><path d="M979.455,184.28h-487a7.008,7.008,0,0,0-7,7v330a7.008,7.008,0,0,0,7,7h487a7.008,7.008,0,0,0,7-7v-330A7.008,7.008,0,0,0,979.455,184.28Zm5,337a5,5,0,0,1-5,5h-487a5,5,0,0,1-5-5v-330a5,5,0,0,1,5-5h487a5,5,0,0,1,5,5Z" transform="translate(-213.545 -184.28)" fill="#3f3d56"/><rect width="499" height="2" transform="translate(272.909 28.04)" fill="#3f3d56"/><circle cx="6" cy="6" r="6" transform="translate(283.909 9)" fill="#3f3d56"/><circle cx="6" cy="6" r="6" transform="translate(301.159 9)" fill="#3f3d56"/><circle cx="6" cy="6" r="6" transform="translate(318.409 9)" fill="#3f3d56"/><path d="M608.323,258.78h-84a7,7,0,1,1,0-14h84a7,7,0,0,1,0,14Z" transform="translate(-213.545 -184.28)" fill="#ccc"/><path d="M723.323,292.78h-199a7,7,0,0,1,0-14h199a7,7,0,1,1,0,14Z" transform="translate(-213.545 -184.28)" fill="#ccc"/><path d="M787.543,306.3A91,91,0,0,0,862.587,448.78V369.34Z" transform="translate(-213.545 -184.28)" fill="#dc3454"/><path d="M862.587,266.78A90.9,90.9,0,0,0,787.543,306.3l75.044,63.037Z" transform="translate(-213.545 -184.28)" fill="#ccc"/><path d="M862.587,449.78h-1v-184h1a92,92,0,0,1,0,184Zm1-181.995V447.774a90,90,0,1,0,0-179.995Z" transform="translate(-213.545 -184.28)" fill="#3f3d56"/><path d="M582.323,487.28h-17a4.505,4.505,0,0,1-4.5-4.5v-49a4.505,4.505,0,0,1,4.5-4.5h17a4.505,4.505,0,0,1,4.5,4.5v49A4.505,4.505,0,0,1,582.323,487.28Z" transform="translate(-213.545 -184.28)" fill="#ccc"/><path d="M632.323,487.28h-17a4.505,4.505,0,0,1-4.5-4.5v-72a4.505,4.505,0,0,1,4.5-4.5h17a4.505,4.505,0,0,1,4.5,4.5v72A4.505,4.505,0,0,1,632.323,487.28Z" transform="translate(-213.545 -184.28)" fill="#ff6584"/><path d="M682.323,487.28h-17a4.505,4.505,0,0,1-4.5-4.5v-92a4.505,4.505,0,0,1,4.5-4.5h17a4.505,4.505,0,0,1,4.5,4.5v92a4.505,4.505,0,0,1-4.5,4.5Z" transform="translate(-213.545 -184.28)" fill="#dc3454"/><path d="M582.323,487.78h-17a5.006,5.006,0,0,1-5-5v-110a5.006,5.006,0,0,1,5-5h17a5.006,5.006,0,0,1,5,5v110a5.006,5.006,0,0,1-5,5Zm-17-118a3,3,0,0,0-3,3v110a3,3,0,0,0,3,3h17a3,3,0,0,0,3-3v-110a3,3,0,0,0-3-3Z" transform="translate(-213.545 -184.28)" fill="#3f3d56"/><path d="M632.323,487.78h-17a5.006,5.006,0,0,1-5-5v-110a5.006,5.006,0,0,1,5-5h17a5.006,5.006,0,0,1,5,5v110a5.006,5.006,0,0,1-5,5Zm-17-118a3,3,0,0,0-3,3v110a3,3,0,0,0,3,3h17a3,3,0,0,0,3-3v-110a3,3,0,0,0-3-3Z" transform="translate(-213.545 -184.28)" fill="#3f3d56"/><path d="M682.323,487.78h-17a5.006,5.006,0,0,1-5-5v-110a5.006,5.006,0,0,1,5-5h17a5.006,5.006,0,0,1,5,5v110a5.006,5.006,0,0,1-5,5Zm-17-118a3,3,0,0,0-3,3v110a3,3,0,0,0,3,3h17a3,3,0,0,0,3-3v-110a3,3,0,0,0-3-3Z" transform="translate(-213.545 -184.28)" fill="#3f3d56"/><path d="M325.977,543.282a10.056,10.056,0,0,0-8.785-12.672l-8.6-34.685-12.586,13.653,10.1,30.844a10.11,10.11,0,0,0,19.875,2.859Z" transform="translate(-213.545 -184.28)" fill="#ffb8b8"/><path d="M302.92,532.615a4.5,4.5,0,0,1-2.517-2.669l-14.357-44.179a46.374,46.374,0,0,1,.764-32.635l13.839-34.355a14.5,14.5,0,1,1,28.6,4.767L310.154,479.1l6.683,45.239a4.515,4.515,0,0,1-2.54,4.5l-7.709,3.678a4.506,4.506,0,0,1-2.659.38A4.458,4.458,0,0,1,302.92,532.615Z" transform="translate(-213.545 -184.28)" fill="#2f2e41"/><path d="M160.343,518.443H172.6l5.832-47.288H160.341Z" fill="#ffb8b8"/><path d="M371.262,699.219h38.531v14.887H386.148a14.887,14.887,0,0,1-14.887-14.887h0Z" transform="translate(567.541 1229.027) rotate(179.997)" fill="#2f2e41"/><path d="M99.343,518.443H111.6l5.832-47.288H99.341Z" fill="#ffb8b8"/><path d="M310.262,699.219h38.531v14.887H325.148a14.887,14.887,0,0,1-14.887-14.887h0Z" transform="translate(445.541 1229.03) rotate(179.997)" fill="#2f2e41"/><path d="M377.24,509.991l10.777,85.386q2.222,17.608,3.11,35.346l2.9,58.068a4,4,0,0,1-3.995,4.2H373.678a4,4,0,0,1-3.955-3.4l-14.71-96.914a2,2,0,0,0-3.943-.067l-17.722,94.917a4,4,0,0,1-3.626,3.184l-15.054.955a4,4,0,0,1-4.29-4.114l4.861-155.562Z" transform="translate(-213.545 -184.28)" fill="#2f2e41"/><circle cx="24.561" cy="24.561" r="24.561" transform="translate(91.385 154.969)" fill="#ffb8b8"/><path d="M310.24,533.991c6,14,32,24,38,4,4.64-15.46,23.02-21.96,31.13-24.11a4.016,4.016,0,0,0,2.86-4.86l-22.67-89.05a31.272,31.272,0,0,0-21.06-22.16c-18.02-5.58-37.02,5.91-40.07,24.52a137.162,137.162,0,0,0-1.59,15.76C294.959,477.381,306.289,524.771,310.24,533.991Z" transform="translate(-213.545 -184.28)" fill="#dc3454"/><path d="M391.629,533.965a10.056,10.056,0,0,0-12.753-8.667l-20.493-29.275-6.837,17.265,20.509,25.153a10.11,10.11,0,0,0,19.574-4.476Z" transform="translate(-213.545 -184.28)" fill="#ffb8b8"/><path d="M366.279,532.3a4.505,4.505,0,0,1-3.309-1.586l-29.277-36.065a46.374,46.374,0,0,1-11.018-30.728l.564-37.033a14.5,14.5,0,1,1,28.4-5.832l2.154,58.707,22.5,39.813a4.515,4.515,0,0,1-.751,5.116l-5.871,6.2a4.506,4.506,0,0,1-2.344,1.311,4.456,4.456,0,0,1-1.046.095Z" transform="translate(-213.545 -184.28)" fill="#2f2e41"/><path d="M310.849,383.9a4.007,4.007,0,0,0,5.9-2.368l.014-.056c.446-1.864.076-3.811-.052-5.723s.059-4.013,1.362-5.419c2.428-2.621,6.748-1.232,10.258-1.894a8.664,8.664,0,0,0,6.74-9.253c-.05-.4-.128-.8-.216-1.193a6.673,6.673,0,0,1,6.927-8.081c3.548.2,7.378,1.278,10.314-1.35a7.608,7.608,0,0,0,1.827-8.2c-1.676-4.838-6.414-7.371-11.1-8.764a40.62,40.62,0,0,0-34.43,5.65c-2.961,2.087-5.727,4.71-6.989,8.106s-.653,7.68,2.193,9.922a18.332,18.332,0,0,0-4.246,17.806C300.755,377.609,307.464,381.951,310.849,383.9Z" transform="translate(-213.545 -184.28)" fill="#2f2e41"/><path d="M489.652,715.72h-265a1,1,0,0,1,0-2h265a1,1,0,0,1,0,2Z" transform="translate(-213.545 -184.28)" fill="#3f3d56"/></g></g></svg>